<svg width="219" height="224" viewBox="0 0 219 224" fill="none" xmlns="http://www.w3.org/2000/svg">
<g style="mix-blend-mode:multiply">
<path d="M126.875 152.949C141.966 152.949 154.2 140.709 154.2 125.609C154.2 110.51 141.966 98.269 126.875 98.269C111.784 98.269 99.5508 110.51 99.5508 125.609C99.5508 140.709 111.784 152.949 126.875 152.949Z" fill="#76552B"/>
</g>
<g style="mix-blend-mode:multiply" opacity="0.65">
<path d="M95.3362 154.747C110.427 154.747 122.661 142.506 122.661 127.406C122.661 112.307 110.427 100.066 95.3362 100.066C80.2453 100.066 68.0117 112.307 68.0117 127.406C68.0117 142.506 80.2453 154.747 95.3362 154.747Z" fill="#402905"/>
</g>
<g style="mix-blend-mode:multiply">
<path d="M95.3753 123.28C110.466 123.28 122.7 111.039 122.7 95.9397C122.7 80.8402 110.466 68.5996 95.3753 68.5996C80.2844 68.5996 68.0508 80.8402 68.0508 95.9397C68.0508 111.039 80.2844 123.28 95.3753 123.28Z" fill="#EAD0A8"/>
</g>
<g style="mix-blend-mode:multiply">
<path d="M125.053 123.28C140.144 123.28 152.378 111.039 152.378 95.9397C152.378 80.8402 140.144 68.5996 125.053 68.5996C109.962 68.5996 97.7285 80.8402 97.7285 95.9397C97.7285 111.039 109.962 123.28 125.053 123.28Z" fill="#B69F66"/>
</g>
<path d="M195.057 111.714C210.125 111.714 221.288 125.991 217.359 140.547C204.919 186.633 163.73 220.914 114.236 222.937C113.409 222.965 112.581 222.994 111.754 223.008C111.747 223.008 111.747 223.008 111.741 223.008C111.029 223.021 110.314 223.029 109.602 223.029H109.246V182.573C109.246 169.843 119.561 159.523 132.284 159.523H133.99C146.713 159.523 157.027 149.202 157.027 136.472V134.765C157.027 122.035 167.342 111.714 180.065 111.714H195.057Z" fill="#76552B"/>
<path d="M157.025 88.6636V87.6712C157.025 74.9408 146.711 64.6206 133.988 64.6206H132.282C119.559 64.6206 109.244 54.3003 109.244 41.5699V0.397949H109.6C111.034 0.397949 112.461 0.426686 113.88 0.476496C163.527 2.35013 204.881 36.6789 217.355 82.8703C221.288 97.4302 210.129 111.714 195.055 111.714H180.063C167.34 111.714 157.025 101.394 157.025 88.6636Z" fill="#B69F66"/>
<path d="M23.9418 111.714C8.87319 111.714 -2.28944 125.991 1.6395 140.547C14.0792 186.633 55.268 220.914 104.763 222.937C105.59 222.965 106.417 222.994 107.244 223.008C107.252 223.008 107.252 223.008 107.258 223.008C107.97 223.021 108.684 223.029 109.396 223.029H109.752V182.573C109.752 169.843 99.4379 159.523 86.7148 159.523H85.0089C72.2858 159.523 61.9713 149.202 61.9713 136.472V134.765C61.9713 122.035 51.6569 111.714 38.9338 111.714H23.9418Z" fill="#402905"/>
<path d="M61.9729 88.6635V87.6712C61.9729 74.9408 72.2873 64.6205 85.0104 64.6205H86.7164C99.4395 64.6205 109.754 54.3003 109.754 41.5699V0.397949H109.398C107.964 0.397949 106.537 0.426686 105.118 0.476496C55.4706 2.35013 14.1152 36.6789 1.64105 82.8683C-2.29172 97.4282 8.86708 111.712 23.9414 111.712H38.9334C51.6565 111.714 61.9729 101.394 61.9729 88.6635Z" fill="#EAD0A8"/>
</svg>
